<?xml version="1.0" encoding="utf-8"?>
<!-- Generator: Adobe Illustrator 27.5.0, SVG Export Plug-In . SVG Version: 6.00 Build 0)  -->
<svg version="1.1" id="Ñëîé_1" xmlns="http://www.w3.org/2000/svg" xmlns:xlink="http://www.w3.org/1999/xlink" x="0px" y="0px"
	 viewBox="0 0 2125.984 2125.984" style="enable-background:new 0 0 2125.984 2125.984;" xml:space="preserve">
<g>
	<rect x="0" y="0" style="fill:none;" width="2125.984" height="2125.984"/>
	<g>
		<polygon style="fill:#1D1D1B;" points="0,0 0,47.788 47.788,0 		"/>
		<polygon style="fill:#1D1D1B;" points="112.158,0 0,112.158 0,165.898 165.898,0 		"/>
		<polygon style="fill:#1D1D1B;" points="230.268,0 0,230.268 0,284.008 284.008,0 		"/>
		<polygon style="fill:#1D1D1B;" points="348.378,0 0,348.378 0,402.118 402.119,0 		"/>
		<polygon style="fill:#1D1D1B;" points="466.488,0 0,466.488 0,520.228 520.229,0 		"/>
		<polygon style="fill:#1D1D1B;" points="584.599,0 0,584.599 0,638.339 638.339,0 		"/>
		<polygon style="fill:#1D1D1B;" points="702.709,0 0,702.709 0,756.449 756.449,0 		"/>
		<polygon style="fill:#1D1D1B;" points="820.82,0 0,820.82 0,874.56 874.56,0 		"/>
		<polygon style="fill:#1D1D1B;" points="938.929,0 0,938.929 0,992.67 992.67,0 		"/>
		<polygon style="fill:#1D1D1B;" points="1057.04,0 0,1057.04 0,1110.78 1110.78,0 		"/>
		<polygon style="fill:#1D1D1B;" points="1175.15,0 0,1175.15 0,1228.89 1228.89,0 		"/>
		<polygon style="fill:#1D1D1B;" points="1293.26,0 0,1293.26 0,1347 1347,0 		"/>
		<polygon style="fill:#1D1D1B;" points="1411.371,0 0,1411.37 0,1465.111 1465.111,0 		"/>
		<polygon style="fill:#1D1D1B;" points="1529.48,0 0,1529.48 0,1583.22 1583.221,0 		"/>
		<polygon style="fill:#1D1D1B;" points="1647.591,0 0,1647.591 0,1701.331 1701.331,0 		"/>
		<polygon style="fill:#1D1D1B;" points="1765.701,0 0,1765.701 0,1819.441 1819.441,0 		"/>
		<polygon style="fill:#1D1D1B;" points="1883.811,0 0,1883.811 0,1937.552 1937.551,0 		"/>
		<polygon style="fill:#1D1D1B;" points="2001.922,0 0,2001.922 0,2055.662 2055.662,0 		"/>
		<polygon style="fill:#1D1D1B;" points="2125.984,0 2120.032,0 0,2120.032 0,2125.984 47.788,2125.984 2125.984,47.788 		"/>
		<polygon style="fill:#1D1D1B;" points="165.898,2125.984 2125.984,165.898 2125.984,112.158 112.158,2125.984 		"/>
		<polygon style="fill:#1D1D1B;" points="284.008,2125.984 2125.984,284.008 2125.984,230.268 230.268,2125.984 		"/>
		<polygon style="fill:#1D1D1B;" points="402.119,2125.984 2125.984,402.119 2125.984,348.379 348.378,2125.984 		"/>
		<polygon style="fill:#1D1D1B;" points="520.228,2125.984 2125.984,520.228 2125.984,466.488 466.488,2125.984 		"/>
		<polygon style="fill:#1D1D1B;" points="638.339,2125.984 2125.984,638.339 2125.984,584.599 584.599,2125.984 		"/>
		<polygon style="fill:#1D1D1B;" points="756.449,2125.984 2125.984,756.449 2125.984,702.709 702.709,2125.984 		"/>
		<polygon style="fill:#1D1D1B;" points="874.56,2125.984 2125.984,874.559 2125.984,820.819 820.819,2125.984 		"/>
		<polygon style="fill:#1D1D1B;" points="992.67,2125.984 2125.984,992.67 2125.984,938.93 938.93,2125.984 		"/>
		<polygon style="fill:#1D1D1B;" points="1110.78,2125.984 2125.984,1110.78 2125.984,1057.039 1057.039,2125.984 		"/>
		<polygon style="fill:#1D1D1B;" points="1228.89,2125.984 2125.984,1228.89 2125.984,1175.15 1175.15,2125.984 		"/>
		<polygon style="fill:#1D1D1B;" points="1347,2125.984 2125.984,1347 2125.984,1293.26 1293.26,2125.984 		"/>
		<polygon style="fill:#1D1D1B;" points="1465.111,2125.984 2125.984,1465.111 2125.984,1411.371 1411.371,2125.984 		"/>
		<polygon style="fill:#1D1D1B;" points="1583.22,2125.984 2125.984,1583.22 2125.984,1529.48 1529.48,2125.984 		"/>
		<polygon style="fill:#1D1D1B;" points="1701.331,2125.984 2125.984,1701.331 2125.984,1647.591 1647.591,2125.984 		"/>
		<polygon style="fill:#1D1D1B;" points="1819.441,2125.984 2125.984,1819.441 2125.984,1765.701 1765.701,2125.984 		"/>
		<polygon style="fill:#1D1D1B;" points="1937.552,2125.984 2125.984,1937.552 2125.984,1883.811 1883.811,2125.984 		"/>
		<polygon style="fill:#1D1D1B;" points="2055.662,2125.984 2125.984,2055.662 2125.984,2001.922 2001.922,2125.984 		"/>
		<polygon style="fill:#1D1D1B;" points="2125.984,2125.984 2125.984,2120.031 2120.032,2125.984 		"/>
	</g>
</g>
</svg>
